HIERARCHY
ROOT SpineBase
{
  OFFSET 0.000000 0.000000 0.000000
  CHANNELS 6 Xposition Yposition Zposition Zrotation Xrotation Yrotation
  JOINT SpineMid
  {
    OFFSET -0.000000 29.546962 0.000000
    CHANNELS 3 Zrotation Xrotation Yrotation
    JOINT SpineShoulder
    {
      OFFSET -0.100498 21.906074 -0.626405
      CHANNELS 3 Zrotation Xrotation Yrotation
      JOINT Neck
      {
        OFFSET -0.025715 7.279268 -0.492911
        CHANNELS 3 Zrotation Xrotation Yrotation
        JOINT Head
        {
          OFFSET -5.073766 13.307043 -0.319470
          CHANNELS 3 Zrotation Xrotation Yrotation
          End Site
          {
            OFFSET 0 0 0
          }
        }
      }
      JOINT ShoulderLeft
      {
        OFFSET -15.017215 -4.759423 8.184460
        CHANNELS 3 Zrotation Xrotation Yrotation
        JOINT ElbowLeft
        {
          OFFSET -0.797579 -26.624720 1.402895
          CHANNELS 3 Zrotation Xrotation Yrotation
          JOINT WristLeft
          {
            OFFSET 0.739517 -19.353884 -4.941685
            CHANNELS 3 Zrotation Xrotation Yrotation
            JOINT HandLeft
            {
              OFFSET 1.166547 -5.203886 -0.990820
              CHANNELS 3 Zrotation Xrotation Yrotation
              JOINT HandTipLeft
              {
                OFFSET 1.204221 -6.269236 -0.653736
                CHANNELS 3 Zrotation Xrotation Yrotation
                End Site
                {
                  OFFSET 0 0 0
                }
              }
              JOINT ThumbLeft
              {
                OFFSET -2.138795 -1.618644 -1.656226
                CHANNELS 3 Zrotation Xrotation Yrotation
                End Site
                {
                  OFFSET 0 0 0
                }
              }
            }
          }
        }
      }
      JOINT ShoulderRight
      {
        OFFSET 13.551080 -2.859718 -9.411581
        CHANNELS 3 Zrotation Xrotation Yrotation
        JOINT ElbowRight
        {
          OFFSET 3.971143 -23.953587 -3.714973
          CHANNELS 3 Zrotation Xrotation Yrotation
          JOINT WristRight
          {
            OFFSET -3.531014 -19.804938 -4.098461
            CHANNELS 3 Zrotation Xrotation Yrotation
            JOINT HandRight
            {
              OFFSET -1.254087 -5.905159 0.500187
              CHANNELS 3 Zrotation Xrotation Yrotation
              JOINT HandTipRight
              {
                OFFSET -0.989769 -6.727553 -0.173188
                CHANNELS 3 Zrotation Xrotation Yrotation
                End Site
                {
                  OFFSET 0 0 0
                }
              }
              JOINT ThumbRight
              {
                OFFSET 2.561571 -2.584027 -1.958702
                CHANNELS 3 Zrotation Xrotation Yrotation
                End Site
                {
                  OFFSET 0 0 0
                }
              }
            }
          }
        }
      }
    }
  }
  JOINT HipLeft
  {
    OFFSET -6.053785 0.265352 -0.148710
    CHANNELS 3 Zrotation Xrotation Yrotation
    JOINT KneeLeft
    {
      OFFSET 7.220203 -30.159141 5.935441
      CHANNELS 3 Zrotation Xrotation Yrotation
      JOINT AnkleLeft
      {
        OFFSET 6.905798 -30.829338 3.699378
        CHANNELS 3 Zrotation Xrotation Yrotation
        JOINT FootLeft
        {
          OFFSET -6.432263 -3.188538 -12.934440
          CHANNELS 3 Zrotation Xrotation Yrotation
          End Site
          {
            OFFSET 0 0 0
          }
        }
      }
    }
  }
  JOINT HipRight
  {
    OFFSET 6.650424 1.423344 -6.447141
    CHANNELS 3 Zrotation Xrotation Yrotation
    JOINT KneeRight
    {
      OFFSET 8.830493 -25.473317 1.902454
      CHANNELS 3 Zrotation Xrotation Yrotation
      JOINT AnkleRight
      {
        OFFSET 3.290291 -35.383868 8.930263
        CHANNELS 3 Zrotation Xrotation Yrotation
        JOINT FootRight
        {
          OFFSET -1.407916 -8.135865 -4.938713
          CHANNELS 3 Zrotation Xrotation Yrotation
          End Site
          {
            OFFSET 0 0 0
          }
        }
      }
    }
  }
}
MOTION
Frames: 10
Frame Time: 0.033333
-31.622730 67.938075 344.785478 0.000000 0.000000 26.371069 -0.000000 -0.000000 -26.371069 -0.000000 0.000000 0.000000 -0.000000 0.000000 0.000000 0.000000 0.000000 0.000000 -0.000000 0.000000 0.000000 -0.000000 0.000000 0.000000 -0.000000 0.000000 0.000000 -0.000000 0.000000 0.000000 0.000000 0.000000 0.000000 0.000000 0.000000 0.000000 -0.000000 0.000000 0.000000 -0.000000 0.000000 0.000000 -0.000000 0.000000 0.000000 -0.000000 0.000000 0.000000 0.000000 0.000000 0.000000 0.000000 0.000000 0.000000 -0.000000 -0.000000 -26.371069 -0.000000 0.000000 0.000000 -0.000000 0.000000 0.000000 0.000000 0.000000 0.000000 -0.000000 -0.000000 -26.371069 -0.000000 0.000000 0.000000 -0.000000 0.000000 0.000000 0.000000 0.000000 0.000000
-31.593063 68.013920 344.710379 0.060559 0.087080 25.866910 -0.092483 -0.051935 -25.866998 -0.000000 0.000000 0.000000 -0.000000 0.000000 0.000000 0.000000 0.000000 0.000000 -0.000000 0.000000 0.000000 -0.000000 0.000000 0.000000 -0.000000 0.000000 0.000000 1.196961 -0.578456 -0.229550 0.000000 0.000000 0.000000 0.000000 0.000000 0.000000 0.745042 -1.026164 -0.279092 -0.750150 1.022435 0.292457 -0.000000 0.000000 0.000000 2.505340 1.298158 -0.284721 0.000000 0.000000 0.000000 0.000000 0.000000 0.000000 -0.092483 -0.051935 -25.866998 -0.000000 0.000000 0.000000 2.422104 -3.374128 -3.515955 0.000000 0.000000 0.000000 -0.092483 -0.051935 -25.866998 -0.000000 0.000000 0.000000 -4.214350 -1.557353 2.776289 0.000000 0.000000 0.000000
-31.559725 68.073962 344.643538 0.122172 0.165463 25.433290 -0.181392 -0.096959 -25.433620 -0.000000 0.000000 0.000000 -0.000000 0.000000 0.000000 0.000000 0.000000 0.000000 -0.000000 0.000000 0.000000 0.692547 0.402088 -0.163714 -1.301030 0.358290 0.445521 2.708653 -1.713245 -0.636087 0.000000 0.000000 0.000000 0.000000 0.000000 0.000000 1.337578 -1.841838 -0.491600 -1.354020 1.829787 0.534725 -0.000000 0.000000 0.000000 4.618213 2.219857 -0.538024 0.000000 0.000000 0.000000 0.000000 0.000000 0.000000 -0.181392 -0.096959 -25.433620 -0.000000 0.000000 0.000000 4.920032 -7.368803 -7.301537 0.000000 0.000000 0.000000 -0.181392 -0.096959 -25.433620 0.608183 0.832208 0.226770 -8.483229 -3.905459 4.772152 0.000000 0.000000 0.000000
-31.522716 68.118200 344.584955 0.184780 0.235031 25.070389 -0.266962 -0.134590 -25.071081 -0.000000 0.000000 0.000000 -0.000000 0.000000 0.000000 0.000000 0.000000 0.000000 -0.000000 0.000000 0.000000 0.920694 0.580791 -0.217215 -1.582495 0.454927 0.566149 3.368981 -2.124048 -0.764196 0.000000 0.000000 0.000000 0.000000 0.000000 0.000000 1.784433 -2.451512 -0.645541 -1.748746 3.434871 0.524201 -0.073960 -1.004188 0.194027 6.288624 2.745715 -0.722327 0.000000 0.000000 0.000000 0.000000 0.000000 0.000000 -0.266962 -0.134590 -25.071081 -0.000000 0.000000 0.000000 7.397145 -11.973856 -11.284388 0.000000 0.000000 0.000000 -0.266962 -0.134590 -25.071081 0.806014 1.148037 0.302676 -11.639464 -5.596344 6.437549 0.000000 0.000000 0.000000
-31.482035 68.146635 344.534630 0.248315 0.295688 24.778313 -0.349381 -0.164391 -24.779455 -0.000000 0.000000 0.000000 -0.000000 0.000000 0.000000 0.000000 0.000000 0.000000 -0.000000 0.000000 0.000000 1.072433 0.746144 -0.251799 -1.618551 0.501706 0.621104 3.555912 -2.232057 -0.783644 0.000000 0.000000 0.000000 0.000000 0.000000 0.000000 2.090999 -2.859391 -0.746900 -1.913375 3.944757 0.592831 -1.187685 -0.965304 0.113375 8.436422 2.736842 -0.677336 0.000000 0.000000 0.000000 0.000000 0.000000 0.000000 -0.349381 -0.164391 -24.779455 -0.000000 0.000000 0.000000 9.735461 -17.095185 -15.360112 0.000000 0.000000 0.000000 -0.349381 -0.164391 -24.779455 0.933833 1.397182 0.355052 -13.951303 -6.961984 7.615444 0.000000 0.000000 0.000000
-31.437683 68.159266 344.492563 0.312713 0.347353 24.557105 -0.428789 -0.185965 -24.558749 -0.000000 0.000000 0.000000 -0.000000 0.000000 0.000000 0.000000 0.000000 0.000000 -0.000000 0.000000 0.000000 1.148725 0.899058 -0.267338 -1.402993 0.499340 0.610640 3.264100 -2.043056 -0.700818 0.000000 0.000000 0.000000 0.000000 0.000000 0.000000 2.261255 -3.069002 -0.799770 -1.868847 4.144117 0.603725 -1.715940 -0.684218 0.068931 9.444703 2.207232 -0.526778 0.000000 0.000000 0.000000 0.000000 0.000000 0.000000 -0.428789 -0.185965 -24.558749 -0.000000 0.000000 0.000000 11.816410 -22.547504 -19.404770 0.000000 0.000000 0.000000 -0.428789 -0.185965 -24.558749 0.991962 1.579713 0.384615 -15.382272 -7.931136 8.330976 0.000000 0.000000 0.000000
-31.352684 68.157713 344.433623 0.419978 0.405006 24.321622 -0.549512 -0.196078 -24.324047 -0.000000 0.000000 0.000000 -0.000000 0.000000 0.000000 0.000000 0.000000 0.000000 -0.000000 0.000000 0.000000 1.248997 1.130917 -0.287192 -1.325660 0.202876 0.576098 4.022071 0.167035 -0.390135 0.000000 0.000000 0.000000 0.000000 0.000000 0.000000 2.677848 -3.397721 -0.900036 -2.337879 4.525718 0.738069 -2.564412 -0.606010 -0.046135 10.177774 2.397705 -0.459434 0.000000 0.000000 0.000000 0.000000 0.000000 0.000000 -0.549512 -0.196078 -24.324047 -0.000000 0.000000 0.000000 15.168476 -34.790868 -27.818246 0.000000 0.000000 0.000000 -1.223839 -0.961616 -24.691406 1.345857 2.846895 0.766068 -17.161377 -9.606855 9.194348 0.000000 0.000000 0.000000
-31.271800 68.133731 344.382630 0.520559 0.460922 24.260803 -0.663977 -0.206304 -24.264092 -0.000000 0.000000 0.000000 -0.000000 0.000000 0.000000 0.000000 0.000000 0.000000 -0.000000 0.000000 0.000000 1.238714 1.256028 -0.280977 -0.955652 -0.110899 0.460613 4.235027 1.114991 -0.237687 0.000000 0.000000 0.000000 0.000000 0.000000 0.000000 2.667556 -3.457201 -0.907320 -1.666649 3.810095 0.713801 -4.550731 3.560078 -0.750589 11.419128 -3.914919 1.619387 0.000000 0.000000 0.000000 0.000000 0.000000 0.000000 -1.376250 -0.677139 -24.532057 0.452527 0.724027 0.259614 16.145312 -41.133965 -32.398073 0.000000 0.000000 0.000000 -1.518819 -1.118559 -24.714466 1.329258 3.106463 0.819948 -16.553173 -9.767304 8.964934 0.000000 0.000000 0.000000
-31.051843 68.049362 344.249483 0.871309 0.705767 24.166682 -1.083889 -0.287130 -24.174764 -0.000000 0.000000 0.000000 -0.000000 0.000000 0.000000 0.000000 0.000000 0.000000 0.452015 -0.702118 0.047610 0.639671 2.090993 -0.293004 -1.084262 -1.393705 0.211143 3.993733 3.626134 0.152141 0.000000 0.000000 0.000000 0.000000 0.000000 0.000000 2.597614 -3.398926 -0.890238 0.108129 2.946836 0.402231 -4.549811 1.011991 0.246245 10.611705 -1.784570 0.426666 0.000000 0.000000 0.000000 0.000000 0.000000 0.000000 -2.182075 -0.936688 -24.580744 0.728609 1.047366 0.387591 15.550571 -37.242354 -29.956675 0.000000 0.000000 0.000000 -2.347489 -1.310954 -24.751075 1.571084 3.330717 0.907861 -15.250347 -9.079547 8.329020 0.000000 0.000000 0.000000
-31.572681 67.847535 344.510954 0.003929 0.278931 24.121545 -0.117578 -0.252969 -24.121814 -0.000000 0.000000 0.000000 -0.000000 0.000000 0.000000 0.000000 0.000000 0.000000 0.485628 -0.745648 0.051075 0.272821 2.112940 -0.204066 1.806649 -0.949183 -0.209519 0.391677 1.899069 0.479098 0.000000 0.000000 0.000000 0.000000 0.000000 0.000000 1.203813 -1.758878 -0.460137 2.944981 0.254314 -0.168027 -4.167279 1.482915 0.646384 9.296772 -3.499619 0.567036 0.000000 0.000000 0.000000 0.000000 0.000000 0.000000 -0.117578 -0.252969 -24.121814 -0.000000 0.000000 0.000000 15.293861 -35.755252 -28.915791 0.000000 0.000000 0.000000 -0.153344 -1.432550 -24.466342 0.238368 2.905991 0.671821 -12.800149 -8.039580 7.116620 0.000000 0.000000 0.000000
